<?xml version="1.0" encoding="utf-8"?>
<!-- Generator: Adobe Illustrator 22.1.0, SVG Export Plug-In . SVG Version: 6.00 Build 0)  -->
<svg version="1.1" id="Capa_1" xmlns="http://www.w3.org/2000/svg" xmlns:xlink="http://www.w3.org/1999/xlink" x="0px" y="0px"
	 viewBox="0 0 89.9 122.8" style="enable-background:new 0 0 89.9 122.8;" xml:space="preserve">
<style type="text/css">
	.st0{fill:#FFFFFF;}
	.st1{fill:#F5F5F5;}
	.st2{fill:#F2F2F2;}
	.st3{clip-path:url(#SVGID_2_);}
	.st4{clip-path:url(#SVGID_4_);}
	.st5{clip-path:url(#SVGID_6_);}
	.st6{clip-path:url(#SVGID_8_);}
	.st7{clip-path:url(#SVGID_12_);}
	.st8{clip-path:url(#SVGID_14_);}
	.st9{clip-path:url(#SVGID_16_);}
	.st10{clip-path:url(#SVGID_18_);}
	.st11{clip-path:url(#SVGID_20_);}
	.st12{clip-path:url(#SVGID_22_);}
	.st13{clip-path:url(#SVGID_24_);}
	.st14{clip-path:url(#SVGID_26_);}
	.st15{clip-path:url(#SVGID_30_);}
	.st16{clip-path:url(#SVGID_32_);}
	.st17{fill:#FF5722;}
	.st18{fill:#1A1A1A;}
	.st19{fill:#EFEFEF;}
	.st20{opacity:0.3;clip-path:url(#XMLID_116_);}
	.st21{fill:url(#SVGID_35_);}
	.st22{fill:url(#SVGID_36_);}
	.st23{fill:url(#SVGID_37_);}
	.st24{opacity:0.3;clip-path:url(#XMLID_125_);}
	.st25{fill:url(#SVGID_38_);}
	.st26{fill:url(#SVGID_39_);}
	.st27{fill:url(#SVGID_40_);}
	.st28{fill:#999999;}
	.st29{opacity:0.2;clip-path:url(#XMLID_127_);}
	.st30{fill:#D1A57D;}
	.st31{fill:#282828;}
	.st32{fill:none;stroke:#FF5722;stroke-miterlimit:10;}
	.st33{fill:none;stroke:#FFFFFF;stroke-miterlimit:10;}
	.st34{fill:url(#XMLID_128_);}
	.st35{fill:url(#XMLID_130_);}
	.st36{fill:url(#XMLID_132_);}
	.st37{fill:url(#XMLID_134_);}
	.st38{fill:url(#XMLID_136_);}
	.st39{fill:url(#XMLID_137_);}
	.st40{opacity:0.2;clip-path:url(#SVGID_42_);}
	.st41{opacity:0.3;clip-path:url(#XMLID_138_);}
	.st42{fill:url(#SVGID_45_);}
	.st43{fill:url(#SVGID_46_);}
	.st44{fill:url(#SVGID_47_);}
	.st45{fill:#808080;}
	.st46{opacity:0.3;clip-path:url(#XMLID_140_);}
	.st47{fill:url(#SVGID_48_);}
	.st48{fill:url(#SVGID_49_);}
	.st49{fill:url(#SVGID_50_);}
	.st50{fill:#FFBCA7;}
	.st51{fill:none;stroke:#FCEE21;stroke-width:0.25;stroke-miterlimit:10;}
	.st52{opacity:0.3;clip-path:url(#XMLID_141_);}
	.st53{fill:url(#SVGID_51_);}
	.st54{fill:url(#SVGID_52_);}
	.st55{fill:url(#SVGID_53_);}
	.st56{opacity:0.3;clip-path:url(#XMLID_142_);}
	.st57{fill:url(#SVGID_54_);}
	.st58{fill:url(#SVGID_55_);}
	.st59{fill:url(#SVGID_56_);}
	.st60{fill:#383838;}
	.st61{filter:url(#Adobe_OpacityMaskFilter);}
	.st62{opacity:0.1;mask:url(#SVGID_57_);}
	.st63{clip-path:url(#XMLID_143_);}
	.st64{opacity:0.2;clip-path:url(#SVGID_61_);}
	.st65{fill:#666666;}
	.st66{opacity:0.1;clip-path:url(#XMLID_144_);}
	.st67{fill:#0000FF;}
	.st68{fill:#E8EAED;}
	.st69{fill:url(#SVGID_62_);}
	.st70{fill:url(#SVGID_65_);}
	.st71{fill:url(#SVGID_66_);}
	.st72{clip-path:url(#SVGID_68_);}
	.st73{clip-path:url(#SVGID_70_);}
	.st74{clip-path:url(#SVGID_72_);}
	.st75{fill:#D4E157;}
	.st76{fill:#E6EE9C;}
	.st77{opacity:0.5;}
	.st78{opacity:0.8;}
	.st79{opacity:0.25;fill:none;stroke:#FFFFFF;stroke-miterlimit:10;}
	.st80{fill:#8C6B1D;}
	.st81{fill:#EFC02F;}
	.st82{fill:#F1F1F1;}
	.st83{fill:#E4E4E4;}
	.st84{fill:#D3A229;}
	.st85{fill:#979797;}
	.st86{opacity:0.25;fill:none;stroke:#979797;stroke-width:2;stroke-miterlimit:10;}
	.st87{fill:#FF5722;stroke:#FFFFFF;stroke-miterlimit:10;}
	.st88{fill:none;stroke:#FF5722;stroke-width:2;stroke-miterlimit:10;}
	.st89{opacity:0.8;fill:#FFFFFF;}
	.st90{fill:#B3B3B3;}
	.st91{clip-path:url(#SVGID_74_);}
	.st92{fill:#FA635A;}
	.st93{fill:#E6EE9C;stroke:#000000;stroke-miterlimit:10;}
	.st94{clip-path:url(#SVGID_76_);}
	.st95{opacity:0.9;fill:#FFFFFF;}
	.st96{clip-path:url(#SVGID_78_);}
	.st97{clip-path:url(#SVGID_80_);}
	.st98{clip-path:url(#SVGID_82_);}
	.st99{opacity:0.6;}
	.st100{clip-path:url(#SVGID_84_);}
	.st101{opacity:0.42;fill:#006837;}
	.st102{fill:none;stroke:#E6E6E6;stroke-miterlimit:10;}
	.st103{clip-path:url(#SVGID_86_);}
	.st104{fill:#FF6838;}
	.st105{clip-path:url(#SVGID_88_);}
	.st106{clip-path:url(#SVGID_90_);}
	.st107{fill:none;stroke:#FF5722;stroke-width:3;stroke-miterlimit:10;}
	.st108{fill:none;stroke:#FF5722;stroke-width:2;stroke-linecap:square;stroke-miterlimit:10;}
	.st109{clip-path:url(#SVGID_92_);}
	.st110{fill:none;stroke:#CCCCCC;stroke-miterlimit:10;}
	.st111{fill:none;stroke:#FF5722;stroke-width:2;stroke-linecap:round;stroke-miterlimit:10;}
	.st112{fill:none;stroke:#FF5722;stroke-width:3;stroke-linecap:round;stroke-miterlimit:10;}
	.st113{fill:#A63916;}
	.st114{clip-path:url(#SVGID_94_);}
	.st115{clip-path:url(#SVGID_96_);}
	.st116{clip-path:url(#SVGID_98_);}
	.st117{clip-path:url(#SVGID_100_);}
	.st118{clip-path:url(#SVGID_102_);}
	.st119{clip-path:url(#SVGID_106_);}
	.st120{clip-path:url(#SVGID_108_);}
	.st121{fill:#C0CA33;}
	.st122{fill:#E6E6E6;}
	.wh{fill:#FFFFFF;}
</style>
<g>
	<g>
		<path class="wh" d="M44.9,103.6c-2.6,0-4.8-2.1-4.8-4.8s2.1-4.8,4.8-4.8c9,0,16.2-7.3,16.2-16.2c0-2.6,2.1-4.8,4.8-4.8c2.6,0,4.8,2.1,4.8,4.8
			C70.8,92,59.2,103.6,44.9,103.6z"/>
	</g>
	<path class="wh" d="M71.3,45.7L71.3,45.7c-1.5,1.5-1.8,3.9-0.8,5.7c5.7,10.3,9.8,20,9.8,26.4c0,19.5-15.9,35.4-35.4,35.4S9.6,97.3,9.6,77.8
		c0-15.1,22.9-48.6,35.4-65.2c3.3,4.4,7.3,9.9,11.4,16c1.7,2.5,5.2,2.8,7.4,0.7l0,0c1.6-1.6,1.9-4.2,0.6-6.1
		c-7.4-10.9-14-19.3-15.6-21.4C47.8,0.7,46.4,0,44.9,0c-1.5,0-2.8,0.7-3.8,1.8C37,7.2,0,54.6,0,77.8c0,24.8,20.2,44.9,44.9,44.9
		s44.9-20.2,44.9-44.9c0-8.3-4.7-19.6-10.9-31C77.4,43.9,73.6,43.4,71.3,45.7z"/>
	<circle class="wh" cx="60.8" cy="25.6" r="6.9"/>
	<circle class="wh" cx="73.7" cy="47.9" r="6.9"/>
</g>
</svg>
