<svg xmlns="http://www.w3.org/2000/svg" viewBox="0 0 75.66 63.05"><defs><style>.cls-1{fill:#ff5722;}</style></defs><title>Recurso 16</title><g id="Capa_2" data-name="Capa 2"><g id="Capa_1-2" data-name="Capa 1"><path class="cls-1" d="M75.66,27.27V23.64a.86.86,0,0,0,0-.16v0l0-.14v0l0-.13s0,0,0,0l0-.11h0L68.41,7.54v-6A1.58,1.58,0,0,0,66.83,0h-58A1.58,1.58,0,0,0,7.25,1.58v6L.14,23h0l-.05.11v0l0,.13v0l0,.14v0a.86.86,0,0,0,0,.16v3.63A8.83,8.83,0,0,0,7.25,36V59.9H1.58a1.58,1.58,0,1,0,0,3.15h72.5a1.58,1.58,0,1,0,0-3.15H68.41V36A8.83,8.83,0,0,0,75.66,27.27Zm-4-5.2H60.78L57.3,9.46h8.52Zm-25,1.43-1.29-14H54l3.48,12.61h-5.9a1.58,1.58,0,1,0,0,3.15H58v2.05a5.68,5.68,0,0,1-11.35,0V23.64S46.65,23.55,46.65,23.5ZM10.4,3.15H65.26V6.31H10.4ZM38,22.07H32.31L33.47,9.46h8.72L43.5,23.72v3.55a5.68,5.68,0,0,1-11.35,0V25.22H38a1.58,1.58,0,1,0,0-3.15ZM28,25.22h1v2.05a5.68,5.68,0,0,1-11.35,0V23.86l4-14.4H30.3L29.14,22.07H28a1.58,1.58,0,1,0,0,3.15ZM3.15,27.27V25.22H7.42a1.58,1.58,0,1,0,0-3.15H4L9.84,9.46h8.52l-3.8,13.76a1.52,1.52,0,0,0-.06.42v3.63a5.68,5.68,0,0,1-11.35,0Zm23,22.38H24.59a1.58,1.58,0,1,0,0,3.15h1.58v7.1H16.71V42.56h9.46ZM65.26,59.9H29.32V41a1.57,1.57,0,0,0-1.58-1.57H15.13A1.57,1.57,0,0,0,13.56,41V59.9H10.4V36a8.8,8.8,0,0,0,5.68-3.66,8.8,8.8,0,0,0,14.5,0,8.8,8.8,0,0,0,14.5,0,8.8,8.8,0,0,0,14.5,0A8.8,8.8,0,0,0,65.26,36Zm1.57-27a5.67,5.67,0,0,1-5.67-5.67V25.22H72.51v2.05A5.68,5.68,0,0,1,66.83,32.94Z"/><path class="cls-1" d="M60.53,39.41H34.05A1.57,1.57,0,0,0,32.47,41V55.17a1.57,1.57,0,0,0,1.58,1.57H60.53a1.57,1.57,0,0,0,1.57-1.57V40.83a.2.2,0,0,1,0-.07s0-.06,0-.09a.19.19,0,0,0,0-.07.24.24,0,0,0,0-.08.25.25,0,0,0,0-.07l0-.07,0-.07,0-.07,0-.06,0-.07-.05-.06a.43.43,0,0,0,0-.07l-.09-.1h0v0l-.1-.09-.06,0-.07,0-.07,0-.06,0-.07,0-.07,0-.07,0-.08,0h-.07l-.08,0-.08,0h-.22ZM35.62,53.59v-11H47.81l-.68.68a1.58,1.58,0,0,0,1.11,2.69,1.58,1.58,0,0,0,1.12-.47l2.9-2.9h4.46l-11,11Zm23.33,0h-8.8l8.8-8.8Z"/><path class="cls-1" d="M43.47,46.89l-.69.69a1.59,1.59,0,0,0,0,2.23,1.58,1.58,0,0,0,2.23,0l.69-.69a1.58,1.58,0,1,0-2.23-2.23Z"/></g></g></svg>