<svg xmlns="http://www.w3.org/2000/svg" viewBox="0 0 45.4 39.72"><defs><style>.cls-1{fill:#ff5722;}</style></defs><title>Recurso 7</title><g id="Capa_2" data-name="Capa 2"><g id="Capa_1-2" data-name="Capa 1"><path class="cls-1" d="M32.63,5.67c3.91,0,7.09,3.82,7.09,8.52,0,9-10.83,16.21-17,19.29-6.2-3.09-17-10.35-17-19.29,0-4.7,3.19-8.52,7.1-8.52,1.82,0,3.82,1.25,5.34,3.34l2.3,2.52a2.83,2.83,0,0,0,4.58,0L27.29,9c1.52-2.09,3.52-3.34,5.34-3.34Zm0-5.67c-4,0-7.59,2.46-9.93,5.67C20.36,2.46,16.78,0,12.77,0,5.72,0,0,6.35,0,14.19,0,30.41,22.7,39.72,22.7,39.72s22.7-9.31,22.7-25.53C45.4,6.35,39.68,0,32.63,0Z"/></g></g></svg>