<svg xmlns="http://www.w3.org/2000/svg" viewBox="0 0 65.07 63.05"><defs><style>.cls-1{fill:#ff5722;}</style></defs><title>Recurso 11</title><g id="Capa_2" data-name="Capa 2"><g id="Capa_1-2" data-name="Capa 1"><path class="cls-1" d="M46.73,38.25H36a2,2,0,0,0-2,2V50.65a2,2,0,0,0,2,2H46.73a2,2,0,0,0,2-2V40.26A2,2,0,0,0,46.73,38.25Zm-2,10.38H38V42.28h6.75Z"/><path class="cls-1" d="M59.32,59V38.85l5-5a2,2,0,0,0,0-2.85L33.87.59A2,2,0,0,0,31,.59L19.15,12.47A2,2,0,0,0,22,15.32L32.45,4.87,60,32.45l-2.71,2.71L33.87,11.73a2,2,0,0,0-2.85,0L7.58,35.16,4.87,32.45l6-6A2,2,0,0,0,8,23.62L.59,31a2,2,0,0,0,0,2.85l5,5V59H2a2,2,0,1,0,0,4h61a2,2,0,0,0,0-4M20.18,59V42.28h6.74V59ZM31,59V40.26a2,2,0,0,0-2-2H18.16a2,2,0,0,0-2,2V59H9.6V38.85L32.45,16,55.29,38.85V59Z"/><path class="cls-1" d="M15.13,21.35a2,2,0,1,0-2-2A2,2,0,0,0,15.13,21.35Z"/></g></g></svg>