<svg xmlns="http://www.w3.org/2000/svg" viewBox="0 0 10.8 19.97"><defs><style>.cls-1{fill:#fff;}</style></defs><title>Recurso 4</title><g id="Capa_2" data-name="Capa 2"><g id="Capa_1-2" data-name="Capa 1"><path class="cls-1" d="M10.39,0H7.8A4.55,4.55,0,0,0,3,4.92V7.18H.41A.41.41,0,0,0,0,7.59v3.28a.41.41,0,0,0,.41.41H3v8.29a.4.4,0,0,0,.41.4h3.4a.4.4,0,0,0,.4-.4V11.28h3.05a.41.41,0,0,0,.41-.41V7.59a.4.4,0,0,0-.12-.29.45.45,0,0,0-.29-.12h-3V5.26c0-.92.22-1.39,1.43-1.39h1.74a.41.41,0,0,0,.41-.41v-3A.41.41,0,0,0,10.39,0Z"/></g></g></svg>