<svg xmlns="http://www.w3.org/2000/svg" viewBox="0 0 19.97 19.97"><defs><style>.cls-1{fill:#fff;}</style></defs><title>Recurso 6</title><g id="Capa_2" data-name="Capa 2"><g id="Capa_1-2" data-name="Capa 1"><path class="cls-1" d="M14.94,0H5A5,5,0,0,0,0,5v9.9a5,5,0,0,0,5,5h9.9a5,5,0,0,0,5-5V5A5,5,0,0,0,14.94,0ZM17.8,14.94a2.86,2.86,0,0,1-2.86,2.86H5a2.86,2.86,0,0,1-2.86-2.86V5A2.87,2.87,0,0,1,5,2.17h9.9A2.87,2.87,0,0,1,17.8,5Z"/><circle class="cls-1" cx="15.3" cy="4.69" r="1.22"/><path class="cls-1" d="M10,13a3,3,0,1,1,3-3A3,3,0,0,1,10,13Z"/></g></g></svg>