<svg xmlns="http://www.w3.org/2000/svg" viewBox="0 0 20.62 20.62"><defs><style>.cls-1{fill:#fff;}</style></defs><title>Recurso 8</title><g id="Capa_2" data-name="Capa 2"><g id="Capa_1-2" data-name="Capa 1"><path id="LinkedIn_alt_" data-name="LinkedIn (alt)" class="cls-1" d="M19.09,0H1.53A1.5,1.5,0,0,0,0,1.48V19.15a1.5,1.5,0,0,0,1.53,1.47H19.09a1.5,1.5,0,0,0,1.53-1.47V1.48A1.5,1.5,0,0,0,19.09,0ZM6.25,17.26H3.14V8H6.25v9.31ZM4.69,6.68h0a1.61,1.61,0,1,1,0-3.22,1.62,1.62,0,1,1,0,3.22ZM17.48,17.26H14.37v-5c0-1.25-.45-2.11-1.58-2.11a1.68,1.68,0,0,0-1.59,1.14,1.88,1.88,0,0,0-.11.75v5.2H8S8,8.82,8,8h3.11V9.27A3.1,3.1,0,0,1,13.9,7.73c2,0,3.58,1.33,3.58,4.19v5.34Zm-6.41-8,0,0v0Z"/></g></g></svg>