<svg xmlns="http://www.w3.org/2000/svg" viewBox="0 0 70.83 70.79"><defs><style>.cls-1{fill:#ff5722;}</style></defs><title>Recurso 22</title><g id="Capa_2" data-name="Capa 2"><g id="Capa_1-2" data-name="Capa 1"><path class="cls-1" d="M27.11,62.49a1.39,1.39,0,1,0,1.39,1.39A1.38,1.38,0,0,0,27.11,62.49Z"/><path class="cls-1" d="M70.1,34.58a1.4,1.4,0,0,0-1.41.05L53.81,44.31V35.78a1.38,1.38,0,0,0-2.14-1.16L36.8,44.29V35.78a1.38,1.38,0,0,0-2.14-1.16l-14.17,9.2-2.1-26A1.37,1.37,0,0,0,17,16.57H5.53a1.38,1.38,0,0,0-1.38,1.27L0,69.3a1.39,1.39,0,0,0,1.38,1.49H69.44a1.38,1.38,0,0,0,1.39-1.38V35.79A1.38,1.38,0,0,0,70.1,34.58ZM6.81,19.33h8.93L16,22.51H6.55Zm-.48,6h9.89l.26,3.18H6.07Zm-.48,5.95H16.7c.09,1.18,2.38,29.59,2.52,31.26H3.33ZM2.88,68l.23-2.77H19.44L19.67,68Zm65.18,0H22.44L20.74,47,34,38.33v8.51A1.38,1.38,0,0,0,36.17,48l14.88-9.67v8.53A1.37,1.37,0,0,0,53.18,48l14.88-9.68Z"/><path class="cls-1" d="M35.41,51h-8.3a1.38,1.38,0,0,0-1.38,1.38v5.54a1.38,1.38,0,0,0,1.38,1.38h8.3a1.38,1.38,0,0,0,1.39-1.38V52.39A1.38,1.38,0,0,0,35.41,51ZM34,56.54H28.5V53.78H34Z"/><path class="cls-1" d="M49.66,51H41a1.38,1.38,0,0,0-1.39,1.38v5.54A1.38,1.38,0,0,0,41,59.31h8.71a1.38,1.38,0,0,0,1.39-1.38V52.39A1.38,1.38,0,0,0,49.66,51Zm-1.38,5.53h-6V53.78h6Z"/><path class="cls-1" d="M63.91,51H55.2a1.38,1.38,0,0,0-1.39,1.38v5.54a1.38,1.38,0,0,0,1.39,1.38h8.71a1.38,1.38,0,0,0,1.38-1.38V52.39A1.38,1.38,0,0,0,63.91,51Z"/><path class="cls-1" d="M30.65,0h0a1.39,1.39,0,0,0-1.37,1.4,1.26,1.26,0,0,1-.37.91,1.42,1.42,0,0,1-1,.42H11A6.92,6.92,0,0,0,4.09,9.65a1.38,1.38,0,1,0,2.76,0A4.16,4.16,0,0,1,11,5.5H27.88a4.22,4.22,0,0,0,3-1.24A4,4,0,0,0,32,1.37,1.39,1.39,0,0,0,30.65,0Z"/><path class="cls-1" d="M35.41,5.52A1.38,1.38,0,0,0,34,6.9v0a1.35,1.35,0,0,1-1.38,1.32l-15.5,0A4.16,4.16,0,0,0,13,12.42a1.39,1.39,0,0,0,2.77,0A1.39,1.39,0,0,1,17.16,11H32.65A4.13,4.13,0,0,0,36.8,6.93v0A1.38,1.38,0,0,0,35.41,5.52Z"/><path class="cls-1" d="M63.91,62.49H32.65a1.39,1.39,0,1,0,0,2.77H63.91a1.39,1.39,0,0,0,0-2.77Z"/><path class="cls-1" d="M12.87,37.18H9.68a1.38,1.38,0,0,0,0,2.76h3.19a1.38,1.38,0,0,0,0-2.76Z"/><path class="cls-1" d="M12.87,42.71H9.68a1.39,1.39,0,0,0,0,2.77h3.19a1.39,1.39,0,0,0,0-2.77Z"/><path class="cls-1" d="M12.87,48.24H9.68a1.39,1.39,0,0,0,0,2.77h3.19a1.39,1.39,0,0,0,0-2.77Z"/><path class="cls-1" d="M12.87,53.78H9.68a1.38,1.38,0,0,0,0,2.76h3.19a1.38,1.38,0,1,0,0-2.76Z"/></g></g></svg>