<svg xmlns="http://www.w3.org/2000/svg" viewBox="0 0 24.01 18.32"><defs><style>.cls-1{fill:#ff6b1e;}</style></defs><title>Recurso 9</title><g id="Capa_2" data-name="Capa 2"><g id="Capa_1-2" data-name="Capa 1"><path class="cls-1" d="M18,0H6A6,6,0,0,0,0,6v6.34a6,6,0,0,0,6,6H18a6,6,0,0,0,6-6V6A6,6,0,0,0,18,0Zm3.92,6v6.34A3.93,3.93,0,0,1,18,16.25H6a3.93,3.93,0,0,1-3.92-3.92V6A3.93,3.93,0,0,1,6,2.07H18A3.93,3.93,0,0,1,21.94,6Z"/><path class="cls-1" d="M15.34,9.21l4.89-3.4a1,1,0,0,0,.26-1.44,1,1,0,0,0-.66-.43,1,1,0,0,0-.78.17L12,9,5,4.11a1,1,0,0,0-.78-.17,1,1,0,0,0-.66.43,1,1,0,0,0,.26,1.44l4.89,3.4L3.73,13.06a1,1,0,0,0-.18,1.46,1.05,1.05,0,0,0,.82.4A1.08,1.08,0,0,0,5,14.7l5.45-4.25L12,11.52l1.54-1.07L19,14.7a1.08,1.08,0,0,0,.64.22,1,1,0,0,0,.82-.4,1,1,0,0,0-.18-1.46Z"/></g></g></svg>