<svg xmlns="http://www.w3.org/2000/svg" viewBox="0 0 298.31 26.66"><defs><style>.cls-1{fill:#a63916;}</style></defs><title>Recurso 2</title><g id="Capa_2" data-name="Capa 2"><g id="Capa_1-2" data-name="Capa 1"><path class="cls-1" d="M110.77,22.19h10.65V26H106.71V1.34H121v3.8H110.77v6.44h9.36v3.71h-9.36Z"/><path class="cls-1" d="M124.18,26V.17h3.91V26Z"/><path class="cls-1" d="M150,16.55a12.51,12.51,0,0,1-.08,1.27H134.43a5.61,5.61,0,0,0,5.83,5,6.17,6.17,0,0,0,3-.74A5.42,5.42,0,0,0,145.37,20h4.13a9.82,9.82,0,0,1-3.6,4.73,9.58,9.58,0,0,1-5.64,1.72,9.37,9.37,0,0,1-7-2.86,9.8,9.8,0,0,1-2.8-7.11,10.32,10.32,0,0,1,1.27-5.1,9.29,9.29,0,0,1,3.51-3.58,10.23,10.23,0,0,1,10.07,0,9.14,9.14,0,0,1,3.43,3.63A10.78,10.78,0,0,1,150,16.55Zm-9.7-6.5a5.72,5.72,0,0,0-3.71,1.23,5.8,5.8,0,0,0-2,3.38H146A6,6,0,0,0,144,11.27,5.75,5.75,0,0,0,140.26,10.05Z"/><path class="cls-1" d="M160.91,26.47a10,10,0,0,1-5.07-1.3,9.48,9.48,0,0,1-3.59-3.6,10.17,10.17,0,0,1-1.3-5.09,10.13,10.13,0,0,1,1.3-5.08,9.35,9.35,0,0,1,3.59-3.58,10.07,10.07,0,0,1,5.09-1.3,9.64,9.64,0,0,1,6.07,2,9.15,9.15,0,0,1,3.36,5.26h-3.87a5.9,5.9,0,0,0-2.24-2.57,6.08,6.08,0,0,0-3.34-.94A5.67,5.67,0,0,0,156.64,12a6.17,6.17,0,0,0-1.71,4.44,6.17,6.17,0,0,0,1.72,4.45,5.62,5.62,0,0,0,4.26,1.81,5.91,5.91,0,0,0,3.33-1,6.21,6.21,0,0,0,2.23-2.7h3.94A9.34,9.34,0,0,1,167,24.44,9.59,9.59,0,0,1,160.91,26.47Z"/><path class="cls-1" d="M180.93,22.46h2.17V26h-2.91a6.67,6.67,0,0,1-4.94-1.82,6.73,6.73,0,0,1-1.8-5V10.34H170V9.58l6.62-7h.67V7H183v3.36h-5.62v8.58a3.5,3.5,0,0,0,.92,2.62A3.54,3.54,0,0,0,180.93,22.46Z"/><path class="cls-1" d="M194.25,6.88h1.69v3.7h-2.07a4.66,4.66,0,0,0-3.62,1.34A5.66,5.66,0,0,0,189,15.86V26h-3.9V7h2.65l.65,2.6A6.85,6.85,0,0,1,194.25,6.88Z"/><path class="cls-1" d="M197.15,4V0h4V4Zm.07,22V7h3.91V26Z"/><path class="cls-1" d="M213.49,26.47a10.08,10.08,0,0,1-5.08-1.3,9.45,9.45,0,0,1-3.58-3.6,10.07,10.07,0,0,1-1.3-5.09,10,10,0,0,1,1.3-5.08,9.33,9.33,0,0,1,3.58-3.58,10.12,10.12,0,0,1,5.09-1.3,9.67,9.67,0,0,1,6.08,2,9.14,9.14,0,0,1,3.35,5.26h-3.87a5.84,5.84,0,0,0-2.24-2.57,6,6,0,0,0-3.33-.94A5.69,5.69,0,0,0,209.21,12a6.17,6.17,0,0,0-1.71,4.44,6.17,6.17,0,0,0,1.72,4.45,5.64,5.64,0,0,0,4.27,1.81,5.91,5.91,0,0,0,3.33-1,6.19,6.19,0,0,0,2.22-2.7H223a9.29,9.29,0,0,1-3.39,5.36A9.57,9.57,0,0,1,213.49,26.47Z"/><path class="cls-1" d="M225,4V0h4V4Zm.07,22V7H229V26Z"/><path class="cls-1" d="M244.68,24.81a8.79,8.79,0,0,1-5.59,1.66,8.37,8.37,0,0,1-5.58-1.77,6.11,6.11,0,0,1-2.2-4.73h3.82a2.76,2.76,0,0,0,1.2,2.26,4.82,4.82,0,0,0,2.89.8,4.94,4.94,0,0,0,2.67-.66,2,2,0,0,0,1.05-1.81,1.71,1.71,0,0,0-.25-.93,2.3,2.3,0,0,0-.6-.67,4.13,4.13,0,0,0-1-.45,10.67,10.67,0,0,0-1.15-.31l-1.37-.26-1.39-.26c-.35-.07-.79-.18-1.34-.33a8.25,8.25,0,0,1-1.34-.49,8.09,8.09,0,0,1-1.11-.69,3.51,3.51,0,0,1-.93-1,4.61,4.61,0,0,1-.57-1.28,5.48,5.48,0,0,1-.23-1.67,5,5,0,0,1,2-4.15A8.45,8.45,0,0,1,239,6.52a8,8,0,0,1,5.3,1.66,5.61,5.61,0,0,1,2.06,4.43h-3.7a2.55,2.55,0,0,0-1-2.06A4.6,4.6,0,0,0,239,9.84a4.55,4.55,0,0,0-2.56.63,2,2,0,0,0-.81,2.41,1.35,1.35,0,0,0,.47.55,4.71,4.71,0,0,0,.64.4,4.2,4.2,0,0,0,.89.29l1,.22,1.12.2a18.49,18.49,0,0,1,4,1,4.77,4.77,0,0,1,3.1,4.42c0,.13,0,.28,0,.44A5.33,5.33,0,0,1,244.68,24.81Z"/><path class="cls-1" d="M257.54,22.46h2.16V26h-2.9a6.65,6.65,0,0,1-4.94-1.82,6.73,6.73,0,0,1-1.81-5V10.34h-3.4V9.58l6.62-7h.67V7h5.66v3.36H254v8.58a3.5,3.5,0,0,0,.92,2.62A3.54,3.54,0,0,0,257.54,22.46Z"/><path class="cls-1" d="M277.45,7h3V26h-3.15l-.38-2.3a9.18,9.18,0,0,1-3.08,2,9.83,9.83,0,0,1-3.81.73,10,10,0,0,1-5.06-1.3,9.3,9.3,0,0,1-3.56-3.59,10.23,10.23,0,0,1-1.29-5.1,10.17,10.17,0,0,1,1.29-5.1A9.32,9.32,0,0,1,265,7.81a10.49,10.49,0,0,1,8.91-.55,9.06,9.06,0,0,1,3.1,2.1Zm-11.58,14a6,6,0,0,0,4.46,1.78,6,6,0,0,0,4.44-1.78,6.05,6.05,0,0,0,1.77-4.46A6.07,6.07,0,0,0,274.77,12a6,6,0,0,0-4.44-1.77,6.07,6.07,0,0,0-6.23,6.23A6.05,6.05,0,0,0,265.87,20.94Z"/><path class="cls-1" d="M296.19,24.81a8.77,8.77,0,0,1-5.59,1.66A8.37,8.37,0,0,1,285,24.7,6.07,6.07,0,0,1,282.83,20h3.81a2.79,2.79,0,0,0,1.2,2.26,4.85,4.85,0,0,0,2.9.8,4.94,4.94,0,0,0,2.67-.66,2.06,2.06,0,0,0,1-1.81,1.79,1.79,0,0,0-.24-.93,2.2,2.2,0,0,0-.61-.67,3.87,3.87,0,0,0-1-.45,10.79,10.79,0,0,0-1.16-.31l-1.36-.26-1.4-.26c-.34-.07-.79-.18-1.34-.33a8.1,8.1,0,0,1-1.33-.49,8.09,8.09,0,0,1-1.11-.69,3.55,3.55,0,0,1-.94-1,5.28,5.28,0,0,1-.57-1.28,5.81,5.81,0,0,1-.23-1.67,5,5,0,0,1,2-4.15,8.44,8.44,0,0,1,5.34-1.59,8.05,8.05,0,0,1,5.31,1.66,5.61,5.61,0,0,1,2.05,4.43h-3.7a2.49,2.49,0,0,0-1-2.06,5.54,5.54,0,0,0-5.28-.08,2,2,0,0,0-.81,2.41,1.31,1.31,0,0,0,.48.55,4.64,4.64,0,0,0,.63.4,4.13,4.13,0,0,0,.9.29l1,.22,1.12.2a18.52,18.52,0,0,1,4,1,4.75,4.75,0,0,1,3.1,4.42c0,.13,0,.28,0,.44A5.34,5.34,0,0,1,296.19,24.81Z"/><path class="cls-1" d="M55.78,1.32a9,9,0,0,1,6.54,2.53,8.52,8.52,0,0,1,2.61,6.4,8.57,8.57,0,0,1-2.61,6.42,8.94,8.94,0,0,1-6.54,2.54H52.07V26H45.26V1.32Zm-.81,12a2.85,2.85,0,0,0,2.14-.84,2.93,2.93,0,0,0,.82-2.16,2.93,2.93,0,0,0-.82-2.16A2.85,2.85,0,0,0,55,7.27h-2.9v6Z"/><path class="cls-1" d="M85.89,26V16.72H81L86.06,7H81.21l-.68,1.47a8.83,8.83,0,0,0-5.82-2,9.7,9.7,0,0,0-7.19,2.84,9.89,9.89,0,0,0-2.81,7.26A10.74,10.74,0,0,0,66,21.74a9.18,9.18,0,0,0,3.56,3.62,10.2,10.2,0,0,0,5.16,1.3,9,9,0,0,0,5.76-2L81,26h4.78v0Zm-7.24-6.43a4.38,4.38,0,0,1-6.11,0,4.25,4.25,0,0,1-1.21-3.1,4.24,4.24,0,0,1,1.21-3.11,4.4,4.4,0,0,1,6.11,0,4.24,4.24,0,0,1,1.21,3.1A4.25,4.25,0,0,1,78.65,19.61Z"/><polygon class="cls-1" points="103.59 6.98 88.18 6.98 88.19 13.55 93.13 13.55 86.56 26.04 87.13 26.04 103.59 26.04 103.59 20.2 96.66 20.2 103.59 6.98"/><polygon class="cls-1" points="24.71 1.32 24.71 26.04 0 26.04 24.71 1.32"/></g></g></svg>