<svg xmlns="http://www.w3.org/2000/svg" viewBox="0 0 16.22 17.42"><defs><style>.cls-1{fill:#fff;}</style></defs><title>Recurso 3</title><g id="Capa_2" data-name="Capa 2"><g id="Capa_1-2" data-name="Capa 1"><path class="cls-1" d="M15.06,12.74l-.64-.55c-1.32-1.12-2.25-1.29-3.1-.54l-.62.54-.17.17a1.63,1.63,0,0,1-1.2.65c-.86,0-1.95-.77-3.33-2.36S4,7.88,4.13,7A1.61,1.61,0,0,1,5,5.93l.16-.11.64-.57c.85-.74.81-1.7-.11-3.13L5.2,1.4C4.84.84,4.28.1,3.67,0H3.58a1.32,1.32,0,0,0-.9.39l-.5.43A5.24,5.24,0,0,0,.07,4.33c-.38,2.48.81,5.32,3.52,8.43s5.31,4.66,7.78,4.66a5.34,5.34,0,0,0,3.71-1.48l.63-.56a1.15,1.15,0,0,0,.51-.93C16.22,13.83,15.6,13.21,15.06,12.74Z"/></g></g></svg>