<?xml version="1.0" encoding="utf-8"?>
<!-- Generator: Adobe Illustrator 22.1.0, SVG Export Plug-In . SVG Version: 6.00 Build 0)  -->
<svg version="1.1" id="Capa_1" xmlns="http://www.w3.org/2000/svg" xmlns:xlink="http://www.w3.org/1999/xlink" x="0px" y="0px"
	 viewBox="0 0 58.4 62.2" style="enable-background:new 0 0 58.4 62.2;" xml:space="preserve">
<style type="text/css">
	.st0{fill:#FFFFFF;}
	.st1{fill:#F5F5F5;}
	.st2{fill:#F2F2F2;}
	.st3{clip-path:url(#SVGID_2_);}
	.st4{clip-path:url(#SVGID_4_);}
	.st5{clip-path:url(#SVGID_6_);}
	.st6{clip-path:url(#SVGID_8_);}
	.st7{clip-path:url(#SVGID_12_);}
	.st8{clip-path:url(#SVGID_14_);}
	.st9{clip-path:url(#SVGID_16_);}
	.st10{clip-path:url(#SVGID_18_);}
	.st11{clip-path:url(#SVGID_20_);}
	.st12{clip-path:url(#SVGID_22_);}
	.st13{clip-path:url(#SVGID_24_);}
	.st14{clip-path:url(#SVGID_26_);}
	.st15{clip-path:url(#SVGID_30_);}
	.st16{clip-path:url(#SVGID_32_);}
	.st17{fill:#FF5722;}
	.st18{fill:#1A1A1A;}
	.st19{fill:#EFEFEF;}
	.st20{opacity:0.3;clip-path:url(#XMLID_116_);}
	.st21{fill:url(#SVGID_35_);}
	.st22{fill:url(#SVGID_36_);}
	.st23{fill:url(#SVGID_37_);}
	.st24{opacity:0.3;clip-path:url(#XMLID_125_);}
	.st25{fill:url(#SVGID_38_);}
	.st26{fill:url(#SVGID_39_);}
	.st27{fill:url(#SVGID_40_);}
	.st28{fill:#999999;}
	.st29{fill:#666666;}
	.st30{opacity:0.2;clip-path:url(#XMLID_127_);}
	.st31{fill:#D1A57D;}
	.st32{fill:#282828;}
	.st33{fill:none;stroke:#FF5722;stroke-miterlimit:10;}
	.st34{fill:none;stroke:#FFFFFF;stroke-miterlimit:10;}
	.st35{fill:url(#XMLID_128_);}
	.st36{fill:url(#XMLID_130_);}
	.st37{fill:url(#XMLID_132_);}
	.st38{fill:url(#XMLID_134_);}
	.st39{fill:url(#XMLID_136_);}
	.st40{fill:url(#XMLID_137_);}
	.st41{opacity:0.2;clip-path:url(#SVGID_42_);}
	.st42{opacity:0.3;clip-path:url(#XMLID_138_);}
	.st43{fill:url(#SVGID_45_);}
	.st44{fill:url(#SVGID_46_);}
	.st45{fill:url(#SVGID_47_);}
	.st46{fill:#808080;}
	.st47{opacity:0.3;clip-path:url(#XMLID_140_);}
	.st48{fill:url(#SVGID_48_);}
	.st49{fill:url(#SVGID_49_);}
	.st50{fill:url(#SVGID_50_);}
	.st51{fill:#FFBCA7;}
	.st52{fill:none;stroke:#FCEE21;stroke-width:0.25;stroke-miterlimit:10;}
	.st53{opacity:0.3;clip-path:url(#XMLID_141_);}
	.st54{fill:url(#SVGID_51_);}
	.st55{fill:url(#SVGID_52_);}
	.st56{fill:url(#SVGID_53_);}
	.st57{opacity:0.3;clip-path:url(#XMLID_142_);}
	.st58{fill:url(#SVGID_54_);}
	.st59{fill:url(#SVGID_55_);}
	.st60{fill:url(#SVGID_56_);}
	.st61{fill:#383838;}
	.st62{fill:#B3B3B3;}
	.st63{filter:url(#Adobe_OpacityMaskFilter);}
	.st64{opacity:0.1;mask:url(#SVGID_57_);}
	.st65{clip-path:url(#XMLID_143_);}
	.st66{opacity:0.2;clip-path:url(#SVGID_61_);}
	.st67{opacity:0.1;clip-path:url(#XMLID_144_);}
	.st68{fill:#0000FF;}
	.st69{fill:#E8EAED;}
	.st70{fill:url(#SVGID_62_);}
	.st71{fill:url(#SVGID_65_);}
	.st72{fill:url(#SVGID_66_);}
	.st73{clip-path:url(#SVGID_68_);}
	.st74{clip-path:url(#SVGID_70_);}
	.st75{clip-path:url(#SVGID_72_);}
	.st76{fill:#D4E157;}
	.st77{fill:#E6EE9C;}
	.st78{opacity:0.5;}
	.st79{opacity:0.8;}
	.st80{opacity:0.25;fill:none;stroke:#FFFFFF;stroke-miterlimit:10;}
	.st81{fill:#8C6B1D;}
	.st82{fill:#EFC02F;}
	.st83{fill:#F1F1F1;}
	.st84{fill:#E4E4E4;}
	.st85{fill:#D3A229;}
	.st86{fill:#979797;}
	.st87{opacity:0.25;fill:none;stroke:#979797;stroke-width:2;stroke-miterlimit:10;}
	.st88{fill:#FF5722;stroke:#FFFFFF;stroke-miterlimit:10;}
	.st89{fill:none;stroke:#FF5722;stroke-width:2;stroke-miterlimit:10;}
	.st90{opacity:0.8;fill:#FFFFFF;}
	.st91{clip-path:url(#SVGID_74_);}
	.st92{fill:#FA635A;}
	.st93{fill:#E6EE9C;stroke:#000000;stroke-miterlimit:10;}
	.st94{clip-path:url(#SVGID_76_);}
	.st95{opacity:0.9;fill:#FFFFFF;}
	.st96{clip-path:url(#SVGID_78_);}
	.st97{clip-path:url(#SVGID_80_);}
	.st98{clip-path:url(#SVGID_82_);}
	.st99{opacity:0.6;}
	.st100{clip-path:url(#SVGID_84_);}
	.st101{opacity:0.42;fill:#006837;}
	.st102{fill:none;stroke:#E6E6E6;stroke-miterlimit:10;}
	.st103{clip-path:url(#SVGID_86_);}
	.st104{fill:#FF6838;}
	.st105{clip-path:url(#SVGID_88_);}
	.st106{clip-path:url(#SVGID_90_);}
	.st107{fill:none;stroke:#FF5722;stroke-width:3;stroke-miterlimit:10;}
	.st108{fill:none;stroke:#FF5722;stroke-width:2;stroke-linecap:square;stroke-miterlimit:10;}
	.st109{clip-path:url(#SVGID_92_);}
	.st110{fill:none;stroke:#CCCCCC;stroke-miterlimit:10;}
	.st111{fill:none;stroke:#FF5722;stroke-width:2;stroke-linecap:round;stroke-miterlimit:10;}
	.st112{fill:none;stroke:#FF5722;stroke-width:3;stroke-linecap:round;stroke-miterlimit:10;}
	.st113{fill:#CCCCCC;}
	.st114{fill:#A63916;}
	.st115{clip-path:url(#SVGID_94_);}
	.st116{clip-path:url(#SVGID_96_);}
	.st117{clip-path:url(#SVGID_98_);}
	.st118{clip-path:url(#SVGID_100_);}
	.st119{clip-path:url(#SVGID_102_);}
	.st120{clip-path:url(#SVGID_106_);}
	.st121{clip-path:url(#SVGID_108_);}
	.st122{fill:#C0CA33;}
	.st123{fill:#E6E6E6;}
	.wh{fill:#ff6b1e}
</style>
<g>
	<g>
		<path class="wh" d="M39.7,62.2c-9,0-18.2-5.4-27.4-16C3,35.5-1.1,25.5,0.3,16.6c1.1-7.3,5.5-11.5,8-13.4L9.7,2c1.8-1.7,3.7-2,5-2l0.8,0.1
			c3.3,0.5,5.6,3.6,7,5.9L24,8.3c3.8,5.9,3.7,10.7-0.2,14.2l-3,2.4c-0.8,0.6-1.2,0.9-1.2,1.3c-0.1,0.6,0.1,3,5.3,9.1
			c5,5.8,7.5,6.5,8.3,6.5c0.5,0,1-0.5,1.4-1c0.4-0.4,0.7-0.7,0.9-0.9l1.9-1.7c6-5.2,12.1,0,14.1,1.7l2.1,1.8
			c2.4,2.1,4.8,4.6,4.8,7.9c0,2-0.9,3.8-2.8,5.4l-2,1.8C53,57.4,48.1,62.1,39.7,62.2z M14.5,6.4c-0.2,0-0.4,0.2-0.6,0.4l-1.7,1.4
			c-2.3,1.7-5,4.5-5.7,9.3C5.5,24.5,9,32.8,17.1,42c8,9.2,15.6,13.8,22.5,13.8c6-0.1,9.4-3.6,9.5-3.7l2.3-2c0.5-0.4,0.6-0.6,0.6-0.6
			c0-0.1-0.2-0.9-2.6-3l-2.1-1.7c-3.9-3.3-4.9-2.5-5.8-1.8l-2,1.7c-0.2,0.1-0.2,0.2-0.4,0.4c-0.5,0.6-2.6,3-6.1,3
			c-3.8,0-8-2.8-13.1-8.7c-5.2-6-7.3-10.3-6.8-14.1c0.5-3.4,2.9-5,4-5.8l0.4-0.3l1.9-1.7c0.7-0.6,1.8-1.6-0.9-5.9l-1.5-2.3
			C15.7,7.1,14.8,6.5,14.5,6.4z"/>
	</g>
</g>
</svg>
