<?xml version="1.0" encoding="utf-8"?>
<!-- Generator: Adobe Illustrator 22.1.0, SVG Export Plug-In . SVG Version: 6.00 Build 0)  -->
<svg version="1.1" id="Capa_1" xmlns="http://www.w3.org/2000/svg" xmlns:xlink="http://www.w3.org/1999/xlink" x="0px" y="0px"
	 viewBox="0 0 85.6 122.8" style="enable-background:new 0 0 85.6 122.8;" xml:space="preserve">
<style type="text/css">
	.st0{fill:#FFFFFF;}
	.st1{fill:#F5F5F5;}
	.st2{fill:#F2F2F2;}
	.st3{clip-path:url(#SVGID_2_);}
	.st4{clip-path:url(#SVGID_4_);}
	.st5{clip-path:url(#SVGID_6_);}
	.st6{clip-path:url(#SVGID_8_);}
	.st7{clip-path:url(#SVGID_12_);}
	.st8{clip-path:url(#SVGID_14_);}
	.st9{clip-path:url(#SVGID_16_);}
	.st10{clip-path:url(#SVGID_18_);}
	.st11{clip-path:url(#SVGID_20_);}
	.st12{clip-path:url(#SVGID_22_);}
	.st13{clip-path:url(#SVGID_24_);}
	.st14{clip-path:url(#SVGID_26_);}
	.st15{clip-path:url(#SVGID_30_);}
	.st16{clip-path:url(#SVGID_32_);}
	.st17{fill:#FF5722;}
	.st18{fill:#1A1A1A;}
	.st19{fill:#EFEFEF;}
	.st20{opacity:0.3;clip-path:url(#XMLID_116_);}
	.st21{fill:url(#SVGID_35_);}
	.st22{fill:url(#SVGID_36_);}
	.st23{fill:url(#SVGID_37_);}
	.st24{opacity:0.3;clip-path:url(#XMLID_125_);}
	.st25{fill:url(#SVGID_38_);}
	.st26{fill:url(#SVGID_39_);}
	.st27{fill:url(#SVGID_40_);}
	.st28{fill:#999999;}
	.st29{opacity:0.2;clip-path:url(#XMLID_127_);}
	.st30{fill:#D1A57D;}
	.st31{fill:#282828;}
	.st32{fill:none;stroke:#FF5722;stroke-miterlimit:10;}
	.st33{fill:none;stroke:#FFFFFF;stroke-miterlimit:10;}
	.st34{fill:url(#XMLID_128_);}
	.st35{fill:url(#XMLID_130_);}
	.st36{fill:url(#XMLID_132_);}
	.st37{fill:url(#XMLID_134_);}
	.st38{fill:url(#XMLID_136_);}
	.st39{fill:url(#XMLID_137_);}
	.st40{opacity:0.2;clip-path:url(#SVGID_42_);}
	.st41{opacity:0.3;clip-path:url(#XMLID_138_);}
	.st42{fill:url(#SVGID_45_);}
	.st43{fill:url(#SVGID_46_);}
	.st44{fill:url(#SVGID_47_);}
	.st45{fill:#808080;}
	.st46{opacity:0.3;clip-path:url(#XMLID_140_);}
	.st47{fill:url(#SVGID_48_);}
	.st48{fill:url(#SVGID_49_);}
	.st49{fill:url(#SVGID_50_);}
	.st50{fill:#FFBCA7;}
	.st51{fill:none;stroke:#FCEE21;stroke-width:0.25;stroke-miterlimit:10;}
	.st52{opacity:0.3;clip-path:url(#XMLID_141_);}
	.st53{fill:url(#SVGID_51_);}
	.st54{fill:url(#SVGID_52_);}
	.st55{fill:url(#SVGID_53_);}
	.st56{opacity:0.3;clip-path:url(#XMLID_142_);}
	.st57{fill:url(#SVGID_54_);}
	.st58{fill:url(#SVGID_55_);}
	.st59{fill:url(#SVGID_56_);}
	.st60{fill:#383838;}
	.st61{filter:url(#Adobe_OpacityMaskFilter);}
	.st62{opacity:0.1;mask:url(#SVGID_57_);}
	.st63{clip-path:url(#XMLID_143_);}
	.st64{opacity:0.2;clip-path:url(#SVGID_61_);}
	.st65{fill:#666666;}
	.st66{opacity:0.1;clip-path:url(#XMLID_144_);}
	.st67{fill:#0000FF;}
	.st68{fill:#E8EAED;}
	.st69{fill:url(#SVGID_62_);}
	.st70{fill:url(#SVGID_65_);}
	.st71{fill:url(#SVGID_66_);}
	.st72{clip-path:url(#SVGID_68_);}
	.st73{clip-path:url(#SVGID_70_);}
	.st74{clip-path:url(#SVGID_72_);}
	.st75{fill:#D4E157;}
	.st76{fill:#E6EE9C;}
	.st77{opacity:0.5;}
	.st78{opacity:0.8;}
	.st79{opacity:0.25;fill:none;stroke:#FFFFFF;stroke-miterlimit:10;}
	.st80{fill:#8C6B1D;}
	.st81{fill:#EFC02F;}
	.st82{fill:#F1F1F1;}
	.st83{fill:#E4E4E4;}
	.st84{fill:#D3A229;}
	.st85{fill:#979797;}
	.st86{opacity:0.25;fill:none;stroke:#979797;stroke-width:2;stroke-miterlimit:10;}
	.st87{fill:#FF5722;stroke:#FFFFFF;stroke-miterlimit:10;}
	.st88{fill:none;stroke:#FF5722;stroke-width:2;stroke-miterlimit:10;}
	.st89{opacity:0.8;fill:#FFFFFF;}
	.st90{fill:#B3B3B3;}
	.st91{clip-path:url(#SVGID_74_);}
	.st92{fill:#FA635A;}
	.st93{fill:#E6EE9C;stroke:#000000;stroke-miterlimit:10;}
	.st94{clip-path:url(#SVGID_76_);}
	.st95{opacity:0.9;fill:#FFFFFF;}
	.st96{clip-path:url(#SVGID_78_);}
	.st97{clip-path:url(#SVGID_80_);}
	.st98{clip-path:url(#SVGID_82_);}
	.st99{opacity:0.6;}
	.st100{clip-path:url(#SVGID_84_);}
	.st101{opacity:0.42;fill:#006837;}
	.st102{fill:none;stroke:#E6E6E6;stroke-miterlimit:10;}
	.st103{clip-path:url(#SVGID_86_);}
	.st104{fill:#FF6838;}
	.st105{clip-path:url(#SVGID_88_);}
	.st106{clip-path:url(#SVGID_90_);}
	.st107{fill:none;stroke:#FF5722;stroke-width:3;stroke-miterlimit:10;}
	.st108{fill:none;stroke:#FF5722;stroke-width:2;stroke-linecap:square;stroke-miterlimit:10;}
	.st109{clip-path:url(#SVGID_92_);}
	.st110{fill:none;stroke:#CCCCCC;stroke-miterlimit:10;}
	.st111{fill:none;stroke:#FF5722;stroke-width:2;stroke-linecap:round;stroke-miterlimit:10;}
	.st112{fill:none;stroke:#FF5722;stroke-width:3;stroke-linecap:round;stroke-miterlimit:10;}
	.st113{fill:#A63916;}
	.st114{clip-path:url(#SVGID_94_);}
	.st115{clip-path:url(#SVGID_96_);}
	.st116{clip-path:url(#SVGID_98_);}
	.st117{clip-path:url(#SVGID_100_);}
	.st118{clip-path:url(#SVGID_102_);}
	.st119{clip-path:url(#SVGID_106_);}
	.st120{clip-path:url(#SVGID_108_);}
	.st121{fill:#C0CA33;}
	.st122{fill:#E6E6E6;}
	.wh{fill:#FFFFFF}
</style>
<g>
	<g>
		<path class="wh" d="M60.7,73l-37.1,40c-0.2,0.1-0.3,0.2-0.6,0c-0.4-0.3-0.3-0.4-0.2-0.6l20-38.5c0.8-1.5,0.7-3.3-0.2-4.7
			c-0.9-1.4-2.4-2.3-4.1-2.3H14.5c-3,0-4.7-2.3-4.9-4.6c-0.1-1.1,0.2-2.6,1.7-3.9c0.1,0,0.1-0.1,0.2-0.1l4.9-4.6c2-1.9,2-5,0.1-6.9
			l0,0c-1.8-1.8-4.8-1.9-6.7-0.1L5,51.1c-4,3.5-5.8,8.7-4.6,14c1.5,6.8,7.9,11.4,14.9,11.4l15.5,0L14.3,108l0,0.1
			c-1.7,3.4-1.5,7.6,0.9,10.6c2.2,2.7,5.2,4.1,8.2,4.1c2.6,0,5.1-1,7.1-3c0.1-0.1,0.1-0.1,0.1-0.2l37.2-40.1c1.8-1.9,1.7-5-0.3-6.8
			C65.6,70.9,62.5,71,60.7,73z"/>
		<path class="wh" d="M84.1,48.1c-2.1-3.8-6.3-5.9-10.7-5.9l-16.5,0l15.3-26.9c1.9-3.2,1.9-6.9,0.1-10.1C70.5,1.9,67.2,0,63.5,0
			c-2.3,0-4.6,0.8-6.4,2.3c-0.1,0.1-0.2,0.1-0.3,0.2L22.6,34.6c-2,1.9-2,5-0.1,6.9l0,0c1.8,1.8,4.8,1.9,6.7,0.1l34.1-32
			c0.1,0,0.2-0.1,0.3-0.1c0.1,0,0.3,0,0.5,0.3c0.2,0.3,0,0.5,0,0.5c0,0,0,0.1-0.1,0.1L44.5,44.6c-0.8,1.5-0.8,3.3,0,4.8
			c0.9,1.5,2.4,2.4,4.1,2.4H74c1.1,0,1.6,0.7,1.8,1.1c0.2,0.4,0.4,1.3-0.3,2.2c-0.2,0.3-1.8,2.4-1.9,2.7c-1.1,1.9-0.7,4.5,1.1,6
			c2,1.7,5,1.5,6.8-0.5c1.1-1.2,3.2-4.5,3.7-5.9C86,54.3,85.7,51.1,84.1,48.1z"/>
	</g>
	<circle class="wh" cx="65.6" cy="74.1" r="6.9"/>
	<circle class="wh" cx="77.1" cy="61.1" r="6.9"/>
</g>
</svg>
