<svg xmlns="http://www.w3.org/2000/svg" viewBox="0 0 9 3"><defs><style>.cls-1{fill:#ff6838;}</style></defs><title>Recurso 16</title><g id="Capa_2" data-name="Capa 2"><g id="Capa_1-2" data-name="Capa 1"><path class="cls-1" d="M1.37,1a2.26,2.26,0,0,1,1,0,1.15,1.15,0,0,1,.7.36.37.37,0,0,1,0,.51,1.25,1.25,0,0,1-.72.37l-.48.11.38.46L1.38,3,0,1.31Zm.56.84a.44.44,0,0,0,.24-.12c0-.06,0-.11,0-.18a.36.36,0,0,0-.22-.12.74.74,0,0,0-.33,0l-.38.08.34.41Z"/><path class="cls-1" d="M6.69,1.82l-.52-.64-.65.14L5.65.51,5,.65V.77a2.6,2.6,0,0,0-.88,0,1.36,1.36,0,0,0-.78.4.42.42,0,0,0,0,.58,1.06,1.06,0,0,0,.46.32,2.2,2.2,0,0,0,.66.15,2.73,2.73,0,0,0,.75-.07,1.24,1.24,0,0,0,.64-.3L6.05,2l.63-.14h0ZM5.38,1.59a.52.52,0,0,1-.33.17,1.07,1.07,0,0,1-.47,0,.65.65,0,0,1-.33-.18.19.19,0,0,1,0-.25.57.57,0,0,1,.33-.17.94.94,0,0,1,.47,0,.58.58,0,0,1,.33.17A.19.19,0,0,1,5.38,1.59Z"/><polygon class="cls-1" points="7.94 0 5.92 0.45 6.29 0.9 6.94 0.75 6.78 1.8 6.85 1.78 9 1.3 8.67 0.9 7.77 1.1 7.94 0"/></g></g></svg>