<svg xmlns="http://www.w3.org/2000/svg" viewBox="0 0 117.4 74.92"><defs><style>.cls-1{fill:#ff6838;}</style></defs><title>Recurso 11</title><g id="Capa_2" data-name="Capa 2"><g id="Capa_1-2" data-name="Capa 1"><path class="cls-1" d="M17.92,25.15a16.69,16.69,0,0,1,13-.46,15.82,15.82,0,0,1,9.09,9,15.94,15.94,0,0,1,.24,12.83,16.64,16.64,0,0,1-9.32,9.1l-6.31,2.7,5,11.63-11.6,5L0,32.8Zm7.31,21a5.34,5.34,0,0,0,3.05-3,5.52,5.52,0,0,0-.18-4.28,5.45,5.45,0,0,0-3-3.09,5.29,5.29,0,0,0-4.26.13L15.93,38,20.29,48.2Z"/><path class="cls-1" d="M87.24,45.36,80.46,29.48l-8.41,3.59,1.59-20.35-8.27,3.53-.08,3A16.41,16.41,0,0,0,53.88,20,18,18,0,0,0,43.69,30.07a18.31,18.31,0,0,0,.5,14.43,19.89,19.89,0,0,0,6,8,17.11,17.11,0,0,0,8.7,3.58,19.08,19.08,0,0,0,9.75-1.54A16.54,16.54,0,0,0,77,47l1.94,1.88,8.15-3.48v0Zm-17-5.68A7.63,7.63,0,0,1,65.9,44a7.54,7.54,0,0,1-6.1.1,7.87,7.87,0,0,1-4.32-4.41,7.88,7.88,0,0,1-.2-6.18A8.13,8.13,0,0,1,65.7,29.1,7.87,7.87,0,0,1,70,33.51,7.85,7.85,0,0,1,70.21,39.68Z"/><polygon class="cls-1" points="103.53 0 77.27 11.21 82.06 22.41 90.49 18.81 88.38 44.88 89.34 44.47 117.4 32.49 113.15 22.53 101.34 27.57 103.53 0"/></g></g></svg>