<svg xmlns="http://www.w3.org/2000/svg" viewBox="0 0 27 9"><defs><style>.cls-1{fill:#ff6838;}</style></defs><title>Recurso 15</title><g id="Capa_2" data-name="Capa 2"><g id="Capa_1-2" data-name="Capa 1"><path class="cls-1" d="M7.94,12.08a6.89,6.89,0,0,1,5.76-.22,7.31,7.31,0,0,1,4,4.34,8.22,8.22,0,0,1,.11,6.16,7.72,7.72,0,0,1-4.13,4.38L10.9,28l2.2,5.59L8,36,0,15.76Zm3.23,10.07a2.5,2.5,0,0,0,1.36-1.44,2.86,2.86,0,0,0-.08-2.05,2.59,2.59,0,0,0-1.32-1.49,2.21,2.21,0,0,0-1.89.07l-2.18,1L9,23.16Z"/><path class="cls-1" d="M38.64,21.8l-3-7.64-3.73,1.73.71-9.78L29,7.81l0,1.43a6.79,6.79,0,0,0-5.05.37,8.37,8.37,0,0,0-4.52,4.84,9.52,9.52,0,0,0,.22,6.93,9.52,9.52,0,0,0,2.66,3.85A7.22,7.22,0,0,0,26.08,27a7.74,7.74,0,0,0,4.32-.74,7.51,7.51,0,0,0,3.7-3.63l.87.9,3.6-1.67v0ZM31.1,19.06a3.52,3.52,0,0,1-1.91,2.09,3.09,3.09,0,0,1-2.7.05,3.67,3.67,0,0,1-1.92-2.12,4.13,4.13,0,0,1-.09-3A3.54,3.54,0,0,1,26.39,14,3.14,3.14,0,0,1,29.1,14,3.67,3.67,0,0,1,31,16.1,4.1,4.1,0,0,1,31.1,19.06Z"/><polygon class="cls-1" points="45.86 0 34.23 5.39 36.35 10.77 40.08 9.04 39.15 21.56 39.57 21.36 52 15.61 50.12 10.83 44.89 13.25 45.86 0"/></g></g></svg>