<svg xmlns="http://www.w3.org/2000/svg" viewBox="0 0 39.72 39.72"><defs><style>.cls-1{fill:#ff5722;}</style></defs><title>Recurso 10</title><g id="Capa_2" data-name="Capa 2"><g id="Capa_1-2" data-name="Capa 1"><path class="cls-1" d="M19.92,0a19.86,19.86,0,1,0,19.8,19.92A19.86,19.86,0,0,0,19.92,0Zm-.11,34.76a14.9,14.9,0,1,1,15-14.85A14.91,14.91,0,0,1,19.81,34.76Z"/><path class="cls-1" d="M24.85,19.88H21.1a1.24,1.24,0,0,1-1.23-1.25V14.87a2.45,2.45,0,0,0-2.45-2.46h-.05a2.46,2.46,0,0,0-2.47,2.45l0,7.49a2.46,2.46,0,0,0,2.45,2.47l7.5,0a2.45,2.45,0,0,0,2.46-2.45v-.05A2.44,2.44,0,0,0,24.85,19.88Z"/></g></g></svg>