<svg xmlns="http://www.w3.org/2000/svg" viewBox="0 0 39.72 39.72"><defs><style>.cls-1{fill:#ff5722;}</style></defs><title>Recurso 11</title><g id="Capa_2" data-name="Capa 2"><g id="Capa_1-2" data-name="Capa 1"><path class="cls-1" d="M19.92,0a19.86,19.86,0,1,0,19.8,19.92A19.86,19.86,0,0,0,19.92,0Zm0,5a14.83,14.83,0,0,1,8.61,2.79l-3.59,3.57a9.93,9.93,0,0,0-5-1.4,9.81,9.81,0,0,0-5,1.37L11.28,7.71A14.8,14.8,0,0,1,19.91,5Zm4.92,14.91a4.78,4.78,0,0,1-.08.76,4.93,4.93,0,0,1-4.14,4.11,3.84,3.84,0,0,1-.76.08,4.78,4.78,0,0,1-.77-.08A4.94,4.94,0,0,1,15,20.61a3.94,3.94,0,0,1,0-1.53A4.93,4.93,0,0,1,19.11,15a4.79,4.79,0,0,1,.77-.07,3.84,3.84,0,0,1,.76.08,4.92,4.92,0,0,1,4.11,4.13A3.87,3.87,0,0,1,24.83,19.88ZM5,19.81a14.8,14.8,0,0,1,2.79-8.6l3.57,3.59a9.84,9.84,0,0,0,0,10.07L7.71,28.44A14.78,14.78,0,0,1,5,19.81Zm14.84,15a14.8,14.8,0,0,1-8.6-2.8l3.59-3.57a9.77,9.77,0,0,0,5,1.4,9.9,9.9,0,0,0,5-1.36L28.44,32A14.85,14.85,0,0,1,19.81,34.76ZM32,28.52l-3.57-3.59a9.89,9.89,0,0,0,0-10.08L32,11.28A14.8,14.8,0,0,1,32,28.52Z"/></g></g></svg>