<?xml version="1.0" encoding="utf-8"?>
<!-- Generator: Adobe Illustrator 22.1.0, SVG Export Plug-In . SVG Version: 6.00 Build 0)  -->
<svg version="1.1" id="Capa_1" xmlns="http://www.w3.org/2000/svg" xmlns:xlink="http://www.w3.org/1999/xlink" x="0px" y="0px"
	 viewBox="0 0 118.8 118.8" style="enable-background:new 0 0 118.8 118.8;" xml:space="preserve">
<style type="text/css">
	.st0{fill:#FFFFFF;}
	.st1{fill:#F5F5F5;}
	.st2{fill:#F2F2F2;}
	.st3{clip-path:url(#SVGID_2_);}
	.st4{clip-path:url(#SVGID_4_);}
	.st5{clip-path:url(#SVGID_6_);}
	.st6{clip-path:url(#SVGID_8_);}
	.st7{clip-path:url(#SVGID_12_);}
	.st8{clip-path:url(#SVGID_14_);}
	.st9{clip-path:url(#SVGID_16_);}
	.st10{clip-path:url(#SVGID_18_);}
	.st11{clip-path:url(#SVGID_20_);}
	.st12{clip-path:url(#SVGID_22_);}
	.st13{clip-path:url(#SVGID_24_);}
	.st14{clip-path:url(#SVGID_26_);}
	.st15{clip-path:url(#SVGID_30_);}
	.st16{clip-path:url(#SVGID_32_);}
	.st17{fill:#FF5722;}
	.st18{fill:#1A1A1A;}
	.st19{fill:#EFEFEF;}
	.st20{opacity:0.3;clip-path:url(#XMLID_116_);}
	.st21{fill:url(#SVGID_35_);}
	.st22{fill:url(#SVGID_36_);}
	.st23{fill:url(#SVGID_37_);}
	.st24{opacity:0.3;clip-path:url(#XMLID_125_);}
	.st25{fill:url(#SVGID_38_);}
	.st26{fill:url(#SVGID_39_);}
	.st27{fill:url(#SVGID_40_);}
	.st28{fill:#999999;}
	.st29{opacity:0.2;clip-path:url(#XMLID_127_);}
	.st30{fill:#D1A57D;}
	.st31{fill:#282828;}
	.st32{fill:none;stroke:#FF5722;stroke-miterlimit:10;}
	.st33{fill:none;stroke:#FFFFFF;stroke-miterlimit:10;}
	.st34{fill:url(#XMLID_128_);}
	.st35{fill:url(#XMLID_130_);}
	.st36{fill:url(#XMLID_132_);}
	.st37{fill:url(#XMLID_134_);}
	.st38{fill:url(#XMLID_136_);}
	.st39{fill:url(#XMLID_137_);}
	.st40{opacity:0.2;clip-path:url(#SVGID_42_);}
	.st41{opacity:0.3;clip-path:url(#XMLID_138_);}
	.st42{fill:url(#SVGID_45_);}
	.st43{fill:url(#SVGID_46_);}
	.st44{fill:url(#SVGID_47_);}
	.st45{fill:#808080;}
	.st46{opacity:0.3;clip-path:url(#XMLID_140_);}
	.st47{fill:url(#SVGID_48_);}
	.st48{fill:url(#SVGID_49_);}
	.st49{fill:url(#SVGID_50_);}
	.st50{fill:#FFBCA7;}
	.st51{fill:none;stroke:#FCEE21;stroke-width:0.25;stroke-miterlimit:10;}
	.st52{opacity:0.3;clip-path:url(#XMLID_141_);}
	.st53{fill:url(#SVGID_51_);}
	.st54{fill:url(#SVGID_52_);}
	.st55{fill:url(#SVGID_53_);}
	.st56{opacity:0.3;clip-path:url(#XMLID_142_);}
	.st57{fill:url(#SVGID_54_);}
	.st58{fill:url(#SVGID_55_);}
	.st59{fill:url(#SVGID_56_);}
	.st60{fill:#383838;}
	.st61{filter:url(#Adobe_OpacityMaskFilter);}
	.st62{opacity:0.1;mask:url(#SVGID_57_);}
	.st63{clip-path:url(#XMLID_143_);}
	.st64{opacity:0.2;clip-path:url(#SVGID_61_);}
	.st65{fill:#666666;}
	.st66{opacity:0.1;clip-path:url(#XMLID_144_);}
	.st67{fill:#0000FF;}
	.st68{fill:#E8EAED;}
	.st69{fill:url(#SVGID_62_);}
	.st70{fill:url(#SVGID_65_);}
	.st71{fill:url(#SVGID_66_);}
	.st72{clip-path:url(#SVGID_68_);}
	.st73{clip-path:url(#SVGID_70_);}
	.st74{clip-path:url(#SVGID_72_);}
	.st75{fill:#D4E157;}
	.st76{fill:#E6EE9C;}
	.st77{opacity:0.5;}
	.st78{opacity:0.8;}
	.st79{opacity:0.25;fill:none;stroke:#FFFFFF;stroke-miterlimit:10;}
	.st80{fill:#8C6B1D;}
	.st81{fill:#EFC02F;}
	.st82{fill:#F1F1F1;}
	.st83{fill:#E4E4E4;}
	.st84{fill:#D3A229;}
	.st85{fill:#979797;}
	.st86{opacity:0.25;fill:none;stroke:#979797;stroke-width:2;stroke-miterlimit:10;}
	.st87{fill:#FF5722;stroke:#FFFFFF;stroke-miterlimit:10;}
	.st88{fill:none;stroke:#FF5722;stroke-width:2;stroke-miterlimit:10;}
	.st89{opacity:0.8;fill:#FFFFFF;}
	.st90{fill:#B3B3B3;}
	.st91{clip-path:url(#SVGID_74_);}
	.st92{fill:#FA635A;}
	.st93{fill:#E6EE9C;stroke:#000000;stroke-miterlimit:10;}
	.st94{clip-path:url(#SVGID_76_);}
	.st95{opacity:0.9;fill:#FFFFFF;}
	.st96{clip-path:url(#SVGID_78_);}
	.st97{clip-path:url(#SVGID_80_);}
	.st98{clip-path:url(#SVGID_82_);}
	.st99{opacity:0.6;}
	.st100{clip-path:url(#SVGID_84_);}
	.st101{opacity:0.42;fill:#006837;}
	.st102{fill:none;stroke:#E6E6E6;stroke-miterlimit:10;}
	.st103{clip-path:url(#SVGID_86_);}
	.st104{fill:#FF6838;}
	.st105{clip-path:url(#SVGID_88_);}
	.st106{clip-path:url(#SVGID_90_);}
	.st107{fill:none;stroke:#FF5722;stroke-width:3;stroke-miterlimit:10;}
	.st108{fill:none;stroke:#FF5722;stroke-width:2;stroke-linecap:square;stroke-miterlimit:10;}
	.st109{clip-path:url(#SVGID_92_);}
	.st110{fill:none;stroke:#CCCCCC;stroke-miterlimit:10;}
	.st111{fill:none;stroke:#FF5722;stroke-width:2;stroke-linecap:round;stroke-miterlimit:10;}
	.st112{fill:none;stroke:#FF5722;stroke-width:3;stroke-linecap:round;stroke-miterlimit:10;}
	.st113{fill:#A63916;}
	.st114{clip-path:url(#SVGID_94_);}
	.st115{clip-path:url(#SVGID_96_);}
	.st116{clip-path:url(#SVGID_98_);}
	.st117{clip-path:url(#SVGID_100_);}
	.st118{clip-path:url(#SVGID_102_);}
	.st119{clip-path:url(#SVGID_106_);}
	.st120{clip-path:url(#SVGID_108_);}
	.st121{fill:#C0CA33;}
	.st122{fill:#E6E6E6;}
	.wh{fill:#FFFFFF}
</style>
<g>
	<g>
		<path class="wh" d="M89.3,47.5c-0.6-1.5-1.9-2.6-3.5-2.9c-1.7-0.3-3.4,0.2-4.5,1.4c-1.4,1.4-1.8,3.5-1.1,5.4c1.2,3,1.7,6.3,1.4,9.6
			c-0.7,10.4-8.7,19-18.9,20.4c-7,1-13.8-1.2-18.8-6c-5-4.8-7.4-11.6-6.7-18.5c1-9.6,8.7-17.8,18.2-19.4c4.1-0.7,8.3-0.3,12.1,1.2
			c1.9,0.7,4,0.3,5.3-1.1c1.2-1.2,1.8-2.9,1.4-4.6c-0.3-1.6-1.3-2.8-2.8-3.4c-5.8-2.3-12.3-2.9-18.5-1.7
			C40.4,30.3,30.3,40.4,27.9,53c-1.9,9.7,0.6,19.5,6.7,26.9c6.1,7.4,15.2,11.7,24.8,11.7c17.7,0,32.2-14.4,32.2-32.2
			C91.6,55.3,90.8,51.3,89.3,47.5z"/>
		<path class="wh" d="M25.1,32.1c0.9,0.9,2.2,1.5,3.5,1.5c0,0,0,0,0,0c1.3,0,2.6-0.5,3.5-1.4c0.9-0.9,1.5-2.2,1.5-3.5c0-1.3-0.5-2.6-1.5-3.6
			l-7.6-7.6c-1-1-2.2-1.5-3.5-1.5c-1.3,0-2.6,0.5-3.5,1.4c-0.9,0.9-1.5,2.2-1.5,3.5c0,1.3,0.5,2.6,1.5,3.5L25.1,32.1z"/>
		<path class="wh" d="M113.8,54.4H103c-2.8,0-5,2.2-5,5c0,2.8,2.2,5,5,5h10.8c2.8,0,5-2.2,5-5C118.8,56.7,116.6,54.4,113.8,54.4z"/>
		<path class="wh" d="M20.8,59.4c0-2.8-2.2-5-5-5H5c-2.8,0-5,2.2-5,5c0,2.8,2.2,5,5,5h10.8C18.5,64.4,20.8,62.1,20.8,59.4z"/>
		<path class="wh" d="M28.6,85.2L28.6,85.2c-1.3,0-2.6,0.5-3.6,1.5l-7.6,7.6c-1.9,2-2,5.1,0,7c0.9,0.9,2.2,1.5,3.5,1.5c1.3,0,2.6-0.5,3.5-1.5
			l7.6-7.6c1-1,1.5-2.2,1.5-3.5c0-1.3-0.5-2.6-1.5-3.5C31.2,85.8,29.9,85.2,28.6,85.2z"/>
		<path class="wh" d="M90.2,33.6c1.3,0,2.5-0.5,3.5-1.5l7.6-7.6c1.9-1.9,2-5.1,0-7c-1.9-1.9-5.1-1.9-7,0l-7.6,7.6c-1,1-1.5,2.2-1.5,3.5
			c0,1.3,0.5,2.6,1.4,3.5C87.7,33.1,88.9,33.6,90.2,33.6z"/>
		<path class="wh" d="M59.4,98c-2.8,0-5,2.2-5,5v10.8c0,2.8,2.2,5,5,5c2.8,0,5-2.2,5-5V103C64.3,100.3,62.1,98,59.4,98z"/>
		<path class="wh" d="M93.7,86.7c-1.9-1.9-5.2-1.9-7,0c-2,2-1.9,5.1,0,7l7.6,7.6c0.9,0.9,2.2,1.5,3.6,1.5c1.3,0,2.6-0.5,3.5-1.4
			c0.9-0.9,1.4-2.2,1.4-3.5c0-1.3-0.5-2.6-1.5-3.5L93.7,86.7z"/>
		<path class="wh" d="M59.4,20.8c2.8,0,5-2.2,5-5V5c0-2.8-2.2-5-5-5c-2.8,0-5,2.2-5,5v10.8C54.4,18.5,56.7,20.8,59.4,20.8z"/>
	</g>
	<circle class="wh" cx="69.5" cy="34.1" r="6.9"/>
	<circle class="wh" cx="84.7" cy="48.8" r="6.9"/>
</g>
</svg>
