<svg xmlns="http://www.w3.org/2000/svg" viewBox="0 0 32.91 32.91"><defs><style>.cls-1{fill:#ff5722;}</style></defs><title>Recurso 24</title><g id="Capa_2" data-name="Capa 2"><g id="Capa_1-2" data-name="Capa 1"><path class="cls-1" d="M24.73,13.16a1.33,1.33,0,0,0-1-.81,1.4,1.4,0,0,0-1.26.38,1.38,1.38,0,0,0-.29,1.49,6.17,6.17,0,0,1-4.84,8.33A6.17,6.17,0,1,1,18.7,10.71a1.39,1.39,0,0,0,1.87-1.58,1.28,1.28,0,0,0-.78-1,9,9,0,0,0-5.12-.47,8.85,8.85,0,0,0-6.95,7,8.91,8.91,0,1,0,17.64,1.78A8.75,8.75,0,0,0,24.73,13.16Z"/><path class="cls-1" d="M6.94,8.88a1.39,1.39,0,0,0,1,.41h0a1.33,1.33,0,0,0,1-.4,1.36,1.36,0,0,0,.41-1,1.39,1.39,0,0,0-.42-1L6.77,4.83a1.39,1.39,0,0,0-1-.41A1.37,1.37,0,0,0,4.42,5.79a1.38,1.38,0,0,0,.41,1Z"/><path class="cls-1" d="M31.53,15.08h-3a1.38,1.38,0,0,0-1.39,1.38,1.37,1.37,0,0,0,1.39,1.37h3a1.38,1.38,0,1,0,0-2.75Z"/><path class="cls-1" d="M5.76,16.46a1.37,1.37,0,0,0-1.39-1.38h-3A1.38,1.38,0,0,0,0,16.46a1.37,1.37,0,0,0,1.39,1.37h3A1.38,1.38,0,0,0,5.76,16.46Z"/><path class="cls-1" d="M7.93,23.61h0a1.41,1.41,0,0,0-1,.42L4.83,26.14a1.39,1.39,0,0,0,0,1.95,1.35,1.35,0,0,0,1,.4,1.38,1.38,0,0,0,1-.41L8.88,26a1.38,1.38,0,0,0-1-2.36Z"/><path class="cls-1" d="M25,9.3a1.38,1.38,0,0,0,1-.42l2.11-2.11a1.39,1.39,0,0,0,0-1.95,1.4,1.4,0,0,0-1.95,0L24,6.94A1.38,1.38,0,0,0,25,9.3Z"/><path class="cls-1" d="M16.45,27.15a1.36,1.36,0,0,0-1.37,1.39v3a1.38,1.38,0,1,0,2.75,0v-3A1.38,1.38,0,0,0,16.45,27.15Z"/><path class="cls-1" d="M26,24A1.41,1.41,0,0,0,24,24,1.36,1.36,0,0,0,24,26l2.11,2.11a1.38,1.38,0,0,0,1.95,0,1.35,1.35,0,0,0,.4-1,1.38,1.38,0,0,0-.41-1Z"/><path class="cls-1" d="M16.45,5.76a1.37,1.37,0,0,0,1.38-1.39v-3A1.38,1.38,0,0,0,16.45,0a1.36,1.36,0,0,0-1.37,1.39v3A1.38,1.38,0,0,0,16.45,5.76Z"/></g></g></svg>