<?xml version="1.0" encoding="utf-8"?>
<!-- Generator: Adobe Illustrator 22.1.0, SVG Export Plug-In . SVG Version: 6.00 Build 0)  -->
<svg version="1.1" id="Capa_1" xmlns="http://www.w3.org/2000/svg" xmlns:xlink="http://www.w3.org/1999/xlink" x="0px" y="0px"
	 viewBox="0 0 298.3 26.7" style="enable-background:new 0 0 298.3 26.7;" xml:space="preserve">
<style type="text/css">
	.st0{fill:#FFFFFF;}
	.st1{fill:#F5F5F5;}
	.st2{fill:#F2F2F2;}
	.st3{clip-path:url(#SVGID_2_);}
	.st4{clip-path:url(#SVGID_4_);}
	.st5{clip-path:url(#SVGID_6_);}
	.st6{clip-path:url(#SVGID_8_);}
	.st7{clip-path:url(#SVGID_12_);}
	.st8{clip-path:url(#SVGID_14_);}
	.st9{clip-path:url(#SVGID_16_);}
	.st10{clip-path:url(#SVGID_18_);}
	.st11{clip-path:url(#SVGID_20_);}
	.st12{clip-path:url(#SVGID_22_);}
	.st13{clip-path:url(#SVGID_24_);}
	.st14{clip-path:url(#SVGID_26_);}
	.st15{clip-path:url(#SVGID_30_);}
	.st16{clip-path:url(#SVGID_32_);}
	.st17{fill:#FF5722;}
	.st18{fill:#1A1A1A;}
	.st19{fill:#EFEFEF;}
	.st20{opacity:0.3;clip-path:url(#XMLID_116_);}
	.st21{fill:url(#SVGID_35_);}
	.st22{fill:url(#SVGID_36_);}
	.st23{fill:url(#SVGID_37_);}
	.st24{opacity:0.3;clip-path:url(#XMLID_125_);}
	.st25{fill:url(#SVGID_38_);}
	.st26{fill:url(#SVGID_39_);}
	.st27{fill:url(#SVGID_40_);}
	.st28{fill:#999999;}
	.st29{opacity:0.2;clip-path:url(#XMLID_127_);}
	.st30{fill:#D1A57D;}
	.st31{fill:#282828;}
	.st32{fill:none;stroke:#FF5722;stroke-miterlimit:10;}
	.st33{fill:none;stroke:#FFFFFF;stroke-miterlimit:10;}
	.st34{fill:url(#XMLID_128_);}
	.st35{fill:url(#XMLID_130_);}
	.st36{fill:url(#XMLID_132_);}
	.st37{fill:url(#XMLID_134_);}
	.st38{fill:url(#XMLID_136_);}
	.st39{fill:url(#XMLID_137_);}
	.st40{opacity:0.2;clip-path:url(#SVGID_42_);}
	.st41{opacity:0.3;clip-path:url(#XMLID_138_);}
	.st42{fill:url(#SVGID_45_);}
	.st43{fill:url(#SVGID_46_);}
	.st44{fill:url(#SVGID_47_);}
	.st45{fill:#808080;}
	.st46{opacity:0.3;clip-path:url(#XMLID_140_);}
	.st47{fill:url(#SVGID_48_);}
	.st48{fill:url(#SVGID_49_);}
	.st49{fill:url(#SVGID_50_);}
	.st50{fill:#FFBCA7;}
	.st51{fill:none;stroke:#FCEE21;stroke-width:0.25;stroke-miterlimit:10;}
	.st52{opacity:0.3;clip-path:url(#XMLID_141_);}
	.st53{fill:url(#SVGID_51_);}
	.st54{fill:url(#SVGID_52_);}
	.st55{fill:url(#SVGID_53_);}
	.st56{opacity:0.3;clip-path:url(#XMLID_142_);}
	.st57{fill:url(#SVGID_54_);}
	.st58{fill:url(#SVGID_55_);}
	.st59{fill:url(#SVGID_56_);}
	.st60{fill:#383838;}
	.st61{filter:url(#Adobe_OpacityMaskFilter);}
	.st62{opacity:0.1;mask:url(#SVGID_57_);}
	.st63{clip-path:url(#XMLID_143_);}
	.st64{opacity:0.2;clip-path:url(#SVGID_61_);}
	.st65{fill:#666666;}
	.st66{opacity:0.1;clip-path:url(#XMLID_144_);}
	.st67{fill:#0000FF;}
	.st68{fill:#E8EAED;}
	.st69{fill:url(#SVGID_62_);}
	.st70{fill:url(#SVGID_65_);}
	.st71{fill:url(#SVGID_66_);}
	.st72{clip-path:url(#SVGID_68_);}
	.st73{clip-path:url(#SVGID_70_);}
	.st74{clip-path:url(#SVGID_72_);}
	.st75{fill:#D4E157;}
	.st76{fill:#E6EE9C;}
	.st77{opacity:0.5;}
	.st78{opacity:0.8;}
	.st79{opacity:0.25;fill:none;stroke:#FFFFFF;stroke-miterlimit:10;}
	.st80{fill:#8C6B1D;}
	.st81{fill:#EFC02F;}
	.st82{fill:#F1F1F1;}
	.st83{fill:#E4E4E4;}
	.st84{fill:#D3A229;}
	.st85{fill:#979797;}
	.st86{opacity:0.25;fill:none;stroke:#979797;stroke-width:2;stroke-miterlimit:10;}
	.st87{fill:#FF5722;stroke:#FFFFFF;stroke-miterlimit:10;}
	.st88{fill:none;stroke:#FF5722;stroke-width:2;stroke-miterlimit:10;}
	.st89{opacity:0.8;fill:#FFFFFF;}
	.st90{fill:#B3B3B3;}
	.st91{clip-path:url(#SVGID_74_);}
	.st92{fill:#FA635A;}
	.st93{fill:#E6EE9C;stroke:#000000;stroke-miterlimit:10;}
	.st94{clip-path:url(#SVGID_76_);}
	.st95{opacity:0.9;fill:#FFFFFF;}
	.st96{clip-path:url(#SVGID_78_);}
	.st97{clip-path:url(#SVGID_80_);}
	.st98{clip-path:url(#SVGID_82_);}
	.st99{opacity:0.6;}
	.st100{clip-path:url(#SVGID_84_);}
	.st101{opacity:0.42;fill:#006837;}
	.st102{fill:none;stroke:#E6E6E6;stroke-miterlimit:10;}
	.st103{clip-path:url(#SVGID_86_);}
	.st104{fill:#FF6838;}
	.st105{clip-path:url(#SVGID_88_);}
	.st106{clip-path:url(#SVGID_90_);}
	.st107{fill:none;stroke:#FF5722;stroke-width:3;stroke-miterlimit:10;}
	.st108{fill:none;stroke:#FF5722;stroke-width:2;stroke-linecap:square;stroke-miterlimit:10;}
	.st109{clip-path:url(#SVGID_92_);}
	.st110{fill:none;stroke:#CCCCCC;stroke-miterlimit:10;}
	.st111{fill:none;stroke:#FF5722;stroke-width:2;stroke-linecap:round;stroke-miterlimit:10;}
	.st112{fill:none;stroke:#FF5722;stroke-width:3;stroke-linecap:round;stroke-miterlimit:10;}
	.st113{fill:#A63916;}
	.st114{clip-path:url(#SVGID_94_);}
	.st115{clip-path:url(#SVGID_96_);}
	.st116{clip-path:url(#SVGID_98_);}
	.st117{clip-path:url(#SVGID_100_);}
	.st118{clip-path:url(#SVGID_102_);}
	.st119{clip-path:url(#SVGID_106_);}
	.st120{clip-path:url(#SVGID_108_);}
	.st121{fill:#C0CA33;}
	.st122{fill:#E6E6E6;}
</style>
<g>
	<g>
		<g>
			<path d="M110.8,22.2h10.6V26h-14.7V1.3H121v3.8h-10.3v6.4h9.4v3.7h-9.4V22.2z"/>
			<path d="M124.2,26V0.2h3.9V26H124.2z"/>
			<path d="M150,16.5c0,0.4,0,0.8-0.1,1.3h-15.4c0.2,1.5,0.9,2.8,1.9,3.6c1,0.9,2.3,1.3,3.9,1.3c1.1,0,2.1-0.2,3-0.7
				c0.9-0.5,1.6-1.2,2.1-2h4.1c-0.8,2-2,3.6-3.6,4.7c-1.6,1.1-3.5,1.7-5.6,1.7c-2.8,0-5.1-1-7-2.9s-2.8-4.3-2.8-7.1
				c0-1.9,0.4-3.6,1.3-5.1c0.8-1.5,2-2.7,3.5-3.6c1.5-0.9,3.2-1.3,5-1.3c1.9,0,3.6,0.5,5.1,1.4c1.5,0.9,2.6,2.1,3.4,3.6
				S150,14.7,150,16.5z M140.3,10c-1.5,0-2.7,0.4-3.7,1.2c-1,0.8-1.7,2-2,3.4H146c-0.4-1.4-1-2.6-2.1-3.4
				C142.9,10.5,141.7,10,140.3,10z"/>
			<path d="M160.9,26.5c-1.9,0-3.5-0.4-5.1-1.3s-2.7-2.1-3.6-3.6c-0.9-1.5-1.3-3.2-1.3-5.1s0.4-3.6,1.3-5.1c0.9-1.5,2.1-2.7,3.6-3.6
				s3.2-1.3,5.1-1.3c2.3,0,4.4,0.7,6.1,2c1.7,1.3,2.8,3.1,3.4,5.3h-3.9c-0.5-1.1-1.3-1.9-2.2-2.6c-1-0.6-2.1-0.9-3.3-0.9
				c-1.7,0-3.1,0.6-4.3,1.8c-1.1,1.2-1.7,2.7-1.7,4.4c0,1.8,0.6,3.3,1.7,4.5s2.6,1.8,4.3,1.8c1.2,0,2.4-0.3,3.3-1
				c1-0.6,1.7-1.5,2.2-2.7h3.9c-0.5,2.2-1.7,4-3.4,5.4C165.3,25.8,163.3,26.5,160.9,26.5z"/>
			<path d="M180.9,22.5h2.2V26h-2.9c-2.1,0-3.7-0.6-4.9-1.8s-1.8-2.9-1.8-5v-8.9H170V9.6l6.6-7h0.7V7h5.7v3.4h-5.6v8.6
				c0,1.1,0.3,2,0.9,2.6C178.9,22.2,179.8,22.5,180.9,22.5z"/>
			<path d="M194.3,6.9h1.7v3.7h-2.1c-1.6,0-2.8,0.4-3.6,1.3c-0.8,0.9-1.2,2.2-1.2,3.9V26h-3.9V7h2.6l0.7,2.6
				C189.8,7.8,191.7,6.9,194.3,6.9z"/>
			<path d="M197.2,4V0h4v4H197.2z M197.2,26V7h3.9v19H197.2z"/>
			<path d="M213.5,26.5c-1.9,0-3.5-0.4-5.1-1.3s-2.7-2.1-3.6-3.6c-0.9-1.5-1.3-3.2-1.3-5.1s0.4-3.6,1.3-5.1c0.9-1.5,2.1-2.7,3.6-3.6
				s3.2-1.3,5.1-1.3c2.3,0,4.4,0.7,6.1,2c1.7,1.3,2.8,3.1,3.4,5.3h-3.9c-0.5-1.1-1.3-1.9-2.2-2.6c-1-0.6-2.1-0.9-3.3-0.9
				c-1.7,0-3.1,0.6-4.3,1.8c-1.1,1.2-1.7,2.7-1.7,4.4c0,1.8,0.6,3.3,1.7,4.5s2.6,1.8,4.3,1.8c1.2,0,2.4-0.3,3.3-1
				c1-0.6,1.7-1.5,2.2-2.7h3.9c-0.5,2.2-1.7,4-3.4,5.4C217.9,25.8,215.8,26.5,213.5,26.5z"/>
			<path d="M225,4V0h4v4H225z M225.1,26V7h3.9v19H225.1z"/>
			<path d="M244.7,24.8c-1.4,1.1-3.3,1.7-5.6,1.7c-2.3,0-4.2-0.6-5.6-1.8c-1.4-1.2-2.1-2.8-2.2-4.7h3.8c0,1,0.4,1.7,1.2,2.3
				c0.8,0.5,1.7,0.8,2.9,0.8c1.1,0,2-0.2,2.7-0.7c0.7-0.4,1-1,1-1.8c0-0.3-0.1-0.7-0.2-0.9c-0.2-0.3-0.4-0.5-0.6-0.7
				c-0.2-0.2-0.6-0.3-1-0.5c-0.4-0.1-0.8-0.2-1.2-0.3c-0.3-0.1-0.8-0.2-1.4-0.3c-0.6-0.1-1-0.2-1.4-0.3c-0.3-0.1-0.8-0.2-1.3-0.3
				c-0.6-0.2-1-0.3-1.3-0.5c-0.3-0.2-0.7-0.4-1.1-0.7c-0.4-0.3-0.7-0.6-0.9-1s-0.4-0.8-0.6-1.3s-0.2-1.1-0.2-1.7
				c0-1.7,0.7-3.1,2-4.2c1.4-1.1,3.1-1.6,5.3-1.6c2.2,0,4,0.6,5.3,1.7s2,2.6,2.1,4.4h-3.7c0-0.9-0.4-1.6-1-2.1
				c-0.7-0.5-1.6-0.7-2.7-0.7c-1.1,0-1.9,0.2-2.6,0.6c-0.6,0.4-0.9,1-0.9,1.7c0,0.3,0,0.5,0.1,0.7c0.1,0.2,0.2,0.4,0.5,0.6
				s0.4,0.3,0.6,0.4c0.2,0.1,0.5,0.2,0.9,0.3c0.4,0.1,0.7,0.2,1,0.2c0.3,0.1,0.6,0.1,1.1,0.2c1.9,0.3,3.2,0.6,4,1
				c1.9,0.8,3,2.3,3.1,4.4c0,0.1,0,0.3,0,0.4C246.8,22.2,246.1,23.7,244.7,24.8z"/>
			<path d="M257.5,22.5h2.2V26h-2.9c-2.1,0-3.7-0.6-4.9-1.8s-1.8-2.9-1.8-5v-8.9h-3.4V9.6l6.6-7h0.7V7h5.7v3.4H254v8.6
				c0,1.1,0.3,2,0.9,2.6C255.5,22.2,256.4,22.5,257.5,22.5z"/>
			<path d="M277.4,7l3,0v19h-3.1l-0.4-2.3c-0.9,0.9-1.9,1.6-3.1,2.1c-1.2,0.5-2.5,0.7-3.8,0.7c-1.9,0-3.5-0.4-5.1-1.3
				c-1.5-0.9-2.7-2.1-3.6-3.6c-0.9-1.5-1.3-3.2-1.3-5.1c0-1.9,0.4-3.6,1.3-5.1s2-2.7,3.6-3.6s3.2-1.3,5.1-1.3c1.4,0,2.7,0.2,3.9,0.7
				c1.2,0.5,2.2,1.2,3.1,2.1L277.4,7z M265.9,20.9c1.2,1.2,2.7,1.8,4.5,1.8s3.3-0.6,4.4-1.8c1.2-1.2,1.8-2.7,1.8-4.5
				s-0.6-3.3-1.8-4.5c-1.2-1.2-2.7-1.8-4.4-1.8s-3.3,0.6-4.5,1.8c-1.2,1.2-1.8,2.7-1.8,4.4C264.1,18.3,264.7,19.8,265.9,20.9z"/>
			<path d="M296.2,24.8c-1.4,1.1-3.3,1.7-5.6,1.7c-2.3,0-4.2-0.6-5.6-1.8c-1.4-1.2-2.1-2.8-2.2-4.7h3.8c0,1,0.4,1.7,1.2,2.3
				c0.8,0.5,1.7,0.8,2.9,0.8c1.1,0,2-0.2,2.7-0.7c0.7-0.4,1-1,1-1.8c0-0.3-0.1-0.7-0.2-0.9c-0.2-0.3-0.4-0.5-0.6-0.7
				c-0.2-0.2-0.6-0.3-1-0.5c-0.4-0.1-0.8-0.2-1.2-0.3c-0.3-0.1-0.8-0.2-1.4-0.3c-0.6-0.1-1-0.2-1.4-0.3c-0.3-0.1-0.8-0.2-1.3-0.3
				c-0.6-0.2-1-0.3-1.3-0.5c-0.3-0.2-0.7-0.4-1.1-0.7c-0.4-0.3-0.7-0.6-0.9-1s-0.4-0.8-0.6-1.3s-0.2-1.1-0.2-1.7
				c0-1.7,0.7-3.1,2-4.2c1.4-1.1,3.1-1.6,5.3-1.6c2.2,0,4,0.6,5.3,1.7s2,2.6,2.1,4.4h-3.7c0-0.9-0.4-1.6-1-2.1
				c-0.7-0.5-1.6-0.7-2.7-0.7c-1.1,0-1.9,0.2-2.6,0.6c-0.6,0.4-0.9,1-0.9,1.7c0,0.3,0,0.5,0.1,0.7c0.1,0.2,0.2,0.4,0.5,0.6
				s0.4,0.3,0.6,0.4c0.2,0.1,0.5,0.2,0.9,0.3c0.4,0.1,0.7,0.2,1,0.2c0.3,0.1,0.6,0.1,1.1,0.2c1.9,0.3,3.2,0.6,4,1
				c1.9,0.8,3,2.3,3.1,4.4c0,0.1,0,0.3,0,0.4C298.3,22.2,297.6,23.7,296.2,24.8z"/>
		</g>
		<g>
			<path d="M55.8,1.3c2.6,0,4.8,0.8,6.5,2.5c1.7,1.7,2.6,3.8,2.6,6.4c0,2.6-0.9,4.7-2.6,6.4c-1.7,1.7-3.9,2.5-6.5,2.5h-3.7V26h-6.8
				V1.3H55.8z M55,13.3c0.9,0,1.6-0.3,2.1-0.8c0.5-0.6,0.8-1.3,0.8-2.2c0-0.9-0.3-1.6-0.8-2.2c-0.5-0.6-1.3-0.8-2.1-0.8h-2.9v6H55z"
				/>
			<g>
				<path d="M85.9,26v-9.3H81L86.1,7h-4.9l-0.7,1.5c-1.6-1.4-3.6-2-5.8-2c-2.9,0-5.3,0.9-7.2,2.8c-1.9,1.9-2.8,4.3-2.8,7.3
					c0,2,0.4,3.7,1.3,5.2c0.9,1.5,2,2.8,3.6,3.6c1.5,0.9,3.2,1.3,5.2,1.3c2.2,0,4.1-0.7,5.8-2L81,26L85.9,26L85.9,26L85.9,26z
					 M78.6,19.6c-0.8,0.8-1.8,1.2-3.1,1.2s-2.2-0.4-3.1-1.2c-0.8-0.8-1.2-1.9-1.2-3.1c0-1.3,0.4-2.3,1.2-3.1
					c0.8-0.8,1.8-1.2,3.1-1.2s2.2,0.4,3.1,1.2c0.8,0.8,1.2,1.9,1.2,3.1C79.9,17.7,79.5,18.8,78.6,19.6z"/>
				<polygon points="103.6,7 88.2,7 88.2,13.5 93.1,13.5 86.6,26 87.1,26 103.6,26 103.6,20.2 96.7,20.2 				"/>
			</g>
		</g>
	</g>
	<polygon points="24.7,1.3 24.7,26 0,26 	"/>
</g>
</svg>
